<svg width="128" height="33" viewBox="0 0 128 33" fill="none" xmlns="http://www.w3.org/2000/svg">
<path d="M9.856 10.272C11.68 10.272 13.216 11.392 13.216 13.344H6.368C6.688 11.36 8.064 10.272 9.856 10.272ZM18.4 18.08H12.576C12.128 19.04 11.264 19.808 9.728 19.808C7.968 19.808 6.528 18.72 6.336 16.384H18.72C18.784 15.84 18.816 15.296 18.816 14.784C18.816 9.344 15.136 5.888 9.92 5.888C4.608 5.888 0.896 9.408 0.896 15.072C0.896 20.736 4.672 24.256 9.92 24.256C14.368 24.256 17.536 21.568 18.4 18.08ZM21.3828 15.04H35.4628V10.496H21.3828V15.04ZM54.7613 18.816C54.6653 12.16 45.0013 14.176 45.0013 11.328C45.0013 10.464 45.7053 9.952 46.9853 9.952C48.5213 9.952 49.4493 10.752 49.6093 11.968H54.6653C54.3133 8.448 51.7533 5.888 47.1453 5.888C42.4733 5.888 39.8813 8.384 39.8813 11.424C39.8813 17.984 49.6093 15.904 49.6093 18.784C49.6093 19.584 48.8733 20.224 47.4653 20.224C45.9613 20.224 44.8413 19.392 44.7133 18.144H39.3053C39.5613 21.6 42.7613 24.256 47.5293 24.256C52.0093 24.256 54.7613 21.92 54.7613 18.816ZM58.109 24H63.581V14.304C63.581 11.872 64.925 10.528 67.005 10.528C69.085 10.528 70.429 11.872 70.429 14.304V24H75.869V13.568C75.869 8.768 73.149 5.952 69.085 5.952C66.621 5.952 64.669 7.008 63.581 8.544V0.32H58.109V24ZM97.1435 15.072C97.1435 9.408 93.1115 5.888 87.8635 5.888C82.6475 5.888 78.5835 9.408 78.5835 15.072C78.5835 20.736 82.5515 24.256 87.7995 24.256C93.0475 24.256 97.1435 20.736 97.1435 15.072ZM84.1515 15.072C84.1515 12.032 85.8795 10.624 87.8635 10.624C89.7835 10.624 91.5755 12.032 91.5755 15.072C91.5755 18.08 89.7515 19.52 87.7995 19.52C85.8155 19.52 84.1515 18.08 84.1515 15.072ZM105.519 8.672V6.144H100.047V32.512H105.519V21.504C106.51 23.008 108.399 24.256 111.023 24.256C115.407 24.256 118.895 20.672 118.895 15.04C118.895 9.408 115.407 5.888 111.023 5.888C108.399 5.888 106.51 7.104 105.519 8.672ZM113.327 15.04C113.327 17.888 111.471 19.488 109.391 19.488C107.343 19.488 105.487 17.92 105.487 15.072C105.487 12.224 107.343 10.656 109.391 10.656C111.471 10.656 113.327 12.192 113.327 15.04Z" fill="#303030"/>
<path d="M127.557 21.312C127.557 19.616 126.245 18.304 124.325 18.304C122.373 18.304 121.061 19.616 121.061 21.312C121.061 22.944 122.373 24.256 124.325 24.256C126.245 24.256 127.557 22.944 127.557 21.312Z" fill="#FF624C"/>
</svg>
