<svg width="544" height="1086" viewBox="0 0 544 1086" fill="none" xmlns="http://www.w3.org/2000/svg">
<mask id="mask0_12_808" style="mask-type:alpha" maskUnits="userSpaceOnUse" x="0" y="0" width="544" height="1086">
<rect width="544" height="1086" rx="15" fill="#D9D9D9"/>
</mask>
<g mask="url(#mask0_12_808)">
<rect width="544" height="1086" rx="15" fill="#F4F4F4"/>
</g>
<path d="M207.603 108.584C207.603 110.708 206.163 111.896 203.715 111.896H198.639V105.128H203.607C206.055 105.128 207.603 106.424 207.603 108.584ZM206.991 98.108C206.991 100.16 205.623 101.24 203.247 101.24H198.639V94.94H203.247C205.623 94.94 206.991 96.092 206.991 98.108ZM212.715 109.196C212.715 106.244 210.699 103.616 207.855 103.112C210.303 102.32 212.139 100.412 212.139 97.352C212.139 93.608 209.223 90.872 203.967 90.872H193.599V116H204.435C209.655 116 212.715 113.192 212.715 109.196ZM235.56 96.056H230.484V107.036C230.484 110.24 228.756 111.968 226.02 111.968C223.356 111.968 221.592 110.24 221.592 107.036V96.056H216.552V107.756C216.552 113.228 219.9 116.252 224.544 116.252C227.028 116.252 229.224 115.172 230.484 113.48V116H235.56V96.056ZM249.029 109.988L243.881 96.056H238.229L246.221 115.496L241.901 125.432H247.265L259.613 96.056H254.249L249.029 109.988ZM295.424 103.364C295.424 95.84 289.736 90.512 282.572 90.512C275.48 90.512 269.684 95.84 269.684 103.364C269.684 110.924 275.48 116.252 282.572 116.252C289.7 116.252 295.424 110.924 295.424 103.364ZM274.868 103.364C274.868 98.252 278 95.048 282.572 95.048C287.108 95.048 290.24 98.252 290.24 103.364C290.24 108.476 287.108 111.752 282.572 111.752C278 111.752 274.868 108.476 274.868 103.364ZM313.141 116H318.181V104.3C318.181 98.792 314.869 95.768 310.225 95.768C307.669 95.768 305.509 96.848 304.213 98.54V96.056H299.173V116H304.213V104.984C304.213 101.78 305.977 100.052 308.713 100.052C311.377 100.052 313.141 101.78 313.141 104.984V116ZM331.542 99.872C334.134 99.872 336.222 101.528 336.294 104.156H326.826C327.222 101.42 329.13 99.872 331.542 99.872ZM341.01 109.736H335.574C334.926 111.068 333.738 112.148 331.578 112.148C329.058 112.148 327.042 110.492 326.79 107.54H341.37C341.478 106.892 341.514 106.244 341.514 105.596C341.514 99.656 337.446 95.732 331.686 95.732C325.782 95.732 321.678 99.728 321.678 106.028C321.678 112.292 325.89 116.324 331.686 116.324C336.618 116.324 339.93 113.408 341.01 109.736ZM343.141 121.184H346.417L350.881 110.456H345.553L343.141 121.184ZM162.547 136.548C155.275 136.548 149.731 141.876 149.731 149.4C149.731 156.924 155.275 162.216 162.583 162.216C169.279 162.216 173.851 157.536 174.859 152.424V148.032H161.251V151.884H169.891C169.135 155.448 166.651 157.68 162.763 157.68C158.083 157.68 154.915 154.512 154.915 149.4C154.915 144.396 158.047 141.192 162.547 141.192C165.211 141.192 167.299 142.308 168.451 144.432H174.247C172.627 139.392 168.163 136.548 162.547 136.548ZM187.156 145.872C189.748 145.872 191.836 147.528 191.908 150.156H182.44C182.836 147.42 184.744 145.872 187.156 145.872ZM196.624 155.736H191.188C190.54 157.068 189.352 158.148 187.192 158.148C184.672 158.148 182.656 156.492 182.404 153.54H196.984C197.092 152.892 197.128 152.244 197.128 151.596C197.128 145.656 193.06 141.732 187.3 141.732C181.396 141.732 177.292 145.728 177.292 152.028C177.292 158.292 181.504 162.324 187.3 162.324C192.232 162.324 195.544 159.408 196.624 155.736ZM201.598 155.808C201.598 160.38 204.154 162 207.97 162H211.138V157.752H208.798C207.214 157.752 206.674 157.176 206.674 155.844V146.196H211.138V142.056H206.674V137.124H201.598V142.056H199.222V146.196H201.598V155.808ZM247.857 149.364C247.857 141.84 242.169 136.512 235.005 136.512C227.913 136.512 222.117 141.84 222.117 149.364C222.117 156.924 227.913 162.252 235.005 162.252C242.133 162.252 247.857 156.924 247.857 149.364ZM227.301 149.364C227.301 144.252 230.433 141.048 235.005 141.048C239.541 141.048 242.673 144.252 242.673 149.364C242.673 154.476 239.541 157.752 235.005 157.752C230.433 157.752 227.301 154.476 227.301 149.364ZM265.575 162H270.615V150.3C270.615 144.792 267.303 141.768 262.659 141.768C260.103 141.768 257.943 142.848 256.647 144.54V142.056H251.607V162H256.647V150.984C256.647 147.78 258.411 146.052 261.147 146.052C263.811 146.052 265.575 147.78 265.575 150.984V162ZM283.976 145.872C286.568 145.872 288.656 147.528 288.728 150.156H279.26C279.656 147.42 281.564 145.872 283.976 145.872ZM293.444 155.736H288.008C287.36 157.068 286.172 158.148 284.012 158.148C281.492 158.148 279.476 156.492 279.224 153.54H293.804C293.912 152.892 293.948 152.244 293.948 151.596C293.948 145.656 289.88 141.732 284.12 141.732C278.216 141.732 274.112 145.728 274.112 152.028C274.112 158.292 278.324 162.324 284.12 162.324C289.052 162.324 292.364 159.408 293.444 155.736ZM306.205 162H311.245V151.38H319.273V147.384H311.245V140.94H321.721V136.872H306.205V162ZM330.335 152.064C330.335 148.212 332.135 147.06 335.123 147.06H336.455V141.768C333.683 141.768 331.595 143.1 330.335 145.152V142.056H325.295V162H330.335V152.064ZM348.417 145.872C351.009 145.872 353.097 147.528 353.169 150.156H343.701C344.097 147.42 346.005 145.872 348.417 145.872ZM357.885 155.736H352.449C351.801 157.068 350.613 158.148 348.453 158.148C345.933 158.148 343.917 156.492 343.665 153.54H358.245C358.353 152.892 358.389 152.244 358.389 151.596C358.389 145.656 354.321 141.732 348.561 141.732C342.657 141.732 338.553 145.728 338.553 152.028C338.553 158.292 342.765 162.324 348.561 162.324C353.493 162.324 356.805 159.408 357.885 155.736ZM370.636 145.872C373.228 145.872 375.316 147.528 375.388 150.156H365.92C366.316 147.42 368.224 145.872 370.636 145.872ZM380.104 155.736H374.668C374.02 157.068 372.832 158.148 370.672 158.148C368.152 158.148 366.136 156.492 365.884 153.54H380.464C380.572 152.892 380.608 152.244 380.608 151.596C380.608 145.656 376.54 141.732 370.78 141.732C364.876 141.732 360.772 145.728 360.772 152.028C360.772 158.292 364.984 162.324 370.78 162.324C375.712 162.324 379.024 159.408 380.104 155.736ZM385.979 153.828H390.227L390.803 136.44H385.367L385.979 153.828ZM391.271 159.3C391.271 157.644 389.975 156.348 388.211 156.348C386.375 156.348 385.079 157.644 385.079 159.3C385.079 160.956 386.375 162.252 388.211 162.252C389.975 162.252 391.271 160.956 391.271 159.3Z" fill="#303030"/>
<path opacity="0.75" d="M41.5205 214.12C40.5205 214.12 39.5672 213.96 38.6605 213.64C37.7539 213.307 37.0339 212.867 36.5005 212.32L37.2005 211.18C37.6405 211.647 38.2405 212.033 39.0005 212.34C39.7739 212.647 40.6072 212.8 41.5005 212.8C42.6872 212.8 43.5872 212.54 44.2005 212.02C44.8272 211.487 45.1405 210.793 45.1405 209.94C45.1405 209.34 44.9939 208.827 44.7005 208.4C44.4205 207.96 43.9405 207.62 43.2605 207.38C42.5805 207.14 41.6472 207.02 40.4605 207.02H37.4805L38.2005 200H45.8605V201.28H38.7805L39.5205 200.58L38.9005 206.46L38.1605 205.74H40.7805C42.1939 205.74 43.3272 205.913 44.1805 206.26C45.0339 206.607 45.6472 207.093 46.0205 207.72C46.4072 208.333 46.6005 209.053 46.6005 209.88C46.6005 210.667 46.4139 211.387 46.0405 212.04C45.6672 212.68 45.1072 213.187 44.3605 213.56C43.6139 213.933 42.6672 214.12 41.5205 214.12ZM54.0087 214.12C52.9287 214.12 51.9687 213.84 51.1287 213.28C50.2887 212.707 49.6287 211.893 49.1487 210.84C48.6687 209.773 48.4287 208.493 48.4287 207C48.4287 205.507 48.6687 204.233 49.1487 203.18C49.6287 202.113 50.2887 201.3 51.1287 200.74C51.9687 200.167 52.9287 199.88 54.0087 199.88C55.0887 199.88 56.0487 200.167 56.8887 200.74C57.7287 201.3 58.3887 202.113 58.8687 203.18C59.362 204.233 59.6087 205.507 59.6087 207C59.6087 208.493 59.362 209.773 58.8687 210.84C58.3887 211.893 57.7287 212.707 56.8887 213.28C56.0487 213.84 55.0887 214.12 54.0087 214.12ZM54.0087 212.8C54.8353 212.8 55.5553 212.58 56.1687 212.14C56.782 211.687 57.262 211.033 57.6087 210.18C57.9553 209.313 58.1287 208.253 58.1287 207C58.1287 205.747 57.9553 204.693 57.6087 203.84C57.262 202.973 56.782 202.32 56.1687 201.88C55.5553 201.427 54.8353 201.2 54.0087 201.2C53.2087 201.2 52.4953 201.427 51.8687 201.88C51.242 202.32 50.7553 202.973 50.4087 203.84C50.062 204.693 49.8887 205.747 49.8887 207C49.8887 208.253 50.062 209.313 50.4087 210.18C50.7553 211.033 51.242 211.687 51.8687 212.14C52.4953 212.58 53.2087 212.8 54.0087 212.8ZM63.5509 214L73.1109 200H74.2909L64.7309 214H63.5509ZM64.6309 207.5C64.0042 207.5 63.4509 207.347 62.9709 207.04C62.4909 206.72 62.1175 206.273 61.8509 205.7C61.5975 205.127 61.4709 204.46 61.4709 203.7C61.4709 202.94 61.5975 202.273 61.8509 201.7C62.1175 201.127 62.4909 200.687 62.9709 200.38C63.4509 200.06 64.0042 199.9 64.6309 199.9C65.2575 199.9 65.8042 200.06 66.2709 200.38C66.7509 200.687 67.1242 201.127 67.3909 201.7C67.6575 202.273 67.7909 202.94 67.7909 203.7C67.7909 204.46 67.6575 205.127 67.3909 205.7C67.1242 206.273 66.7509 206.72 66.2709 207.04C65.8042 207.347 65.2575 207.5 64.6309 207.5ZM64.6309 206.6C65.2842 206.6 65.8042 206.347 66.1909 205.84C66.5909 205.32 66.7909 204.607 66.7909 203.7C66.7909 202.793 66.5909 202.087 66.1909 201.58C65.8042 201.06 65.2842 200.8 64.6309 200.8C63.9642 200.8 63.4375 201.06 63.0509 201.58C62.6642 202.087 62.4709 202.793 62.4709 203.7C62.4709 204.607 62.6642 205.32 63.0509 205.84C63.4375 206.347 63.9642 206.6 64.6309 206.6ZM73.2109 214.1C72.5975 214.1 72.0509 213.947 71.5709 213.64C71.0909 213.32 70.7175 212.873 70.4509 212.3C70.1842 211.727 70.0509 211.06 70.0509 210.3C70.0509 209.54 70.1842 208.873 70.4509 208.3C70.7175 207.727 71.0909 207.287 71.5709 206.98C72.0509 206.66 72.5975 206.5 73.2109 206.5C73.8509 206.5 74.4042 206.66 74.8709 206.98C75.3509 207.287 75.7175 207.727 75.9709 208.3C76.2375 208.873 76.3709 209.54 76.3709 210.3C76.3709 211.06 76.2375 211.727 75.9709 212.3C75.7175 212.873 75.3509 213.32 74.8709 213.64C74.4042 213.947 73.8509 214.1 73.2109 214.1ZM73.2109 213.2C73.8642 213.2 74.3842 212.947 74.7709 212.44C75.1709 211.92 75.3709 211.207 75.3709 210.3C75.3709 209.393 75.1709 208.687 74.7709 208.18C74.3842 207.66 73.8642 207.4 73.2109 207.4C72.5575 207.4 72.0309 207.66 71.6309 208.18C71.2442 208.687 71.0509 209.393 71.0509 210.3C71.0509 211.207 71.2442 211.92 71.6309 212.44C72.0309 212.947 72.5575 213.2 73.2109 213.2ZM88.7073 214.1C87.6939 214.1 86.7806 213.873 85.9673 213.42C85.1673 212.953 84.5339 212.32 84.0673 211.52C83.6006 210.707 83.3673 209.78 83.3673 208.74C83.3673 207.687 83.6006 206.76 84.0673 205.96C84.5339 205.16 85.1673 204.533 85.9673 204.08C86.7673 203.627 87.6806 203.4 88.7073 203.4C89.7473 203.4 90.6673 203.627 91.4673 204.08C92.2806 204.533 92.9139 205.16 93.3673 205.96C93.8339 206.76 94.0673 207.687 94.0673 208.74C94.0673 209.78 93.8339 210.707 93.3673 211.52C92.9139 212.32 92.2806 212.953 91.4673 213.42C90.6539 213.873 89.7339 214.1 88.7073 214.1ZM88.7073 212.84C89.4673 212.84 90.1406 212.673 90.7273 212.34C91.3139 211.993 91.7739 211.513 92.1073 210.9C92.4539 210.273 92.6273 209.553 92.6273 208.74C92.6273 207.913 92.4539 207.193 92.1073 206.58C91.7739 205.967 91.3139 205.493 90.7273 205.16C90.1406 204.813 89.4739 204.64 88.7273 204.64C87.9806 204.64 87.3139 204.813 86.7273 205.16C86.1406 205.493 85.6739 205.967 85.3273 206.58C84.9806 207.193 84.8073 207.913 84.8073 208.74C84.8073 209.553 84.9806 210.273 85.3273 210.9C85.6739 211.513 86.1406 211.993 86.7273 212.34C87.3139 212.673 87.9739 212.84 88.7073 212.84ZM97.2063 214V202.18C97.2063 201.247 97.4797 200.493 98.0263 199.92C98.573 199.347 99.3597 199.06 100.386 199.06C100.786 199.06 101.173 199.113 101.546 199.22C101.92 199.327 102.233 199.493 102.486 199.72L102.006 200.78C101.806 200.607 101.573 200.48 101.306 200.4C101.04 200.307 100.753 200.26 100.446 200.26C99.8463 200.26 99.3863 200.427 99.0663 200.76C98.7463 201.093 98.5863 201.587 98.5863 202.24V203.84L98.6263 204.5V214H97.2063ZM95.3263 204.68V203.5H101.826V204.68H95.3263ZM104.023 214V202.18C104.023 201.247 104.296 200.493 104.843 199.92C105.389 199.347 106.176 199.06 107.203 199.06C107.603 199.06 107.989 199.113 108.363 199.22C108.736 199.327 109.049 199.493 109.303 199.72L108.823 200.78C108.623 200.607 108.389 200.48 108.123 200.4C107.856 200.307 107.569 200.26 107.263 200.26C106.663 200.26 106.203 200.427 105.883 200.76C105.563 201.093 105.403 201.587 105.403 202.24V203.84L105.443 204.5V214H104.023ZM102.143 204.68V203.5H108.643V204.68H102.143ZM121.214 214.1C120.308 214.1 119.488 213.893 118.754 213.48C118.021 213.053 117.434 212.447 116.994 211.66C116.568 210.86 116.354 209.887 116.354 208.74C116.354 207.593 116.568 206.627 116.994 205.84C117.421 205.04 118.001 204.433 118.734 204.02C119.468 203.607 120.294 203.4 121.214 203.4C122.214 203.4 123.108 203.627 123.894 204.08C124.694 204.52 125.321 205.147 125.774 205.96C126.228 206.76 126.454 207.687 126.454 208.74C126.454 209.807 126.228 210.74 125.774 211.54C125.321 212.34 124.694 212.967 123.894 213.42C123.108 213.873 122.214 214.1 121.214 214.1ZM115.794 217.88V203.5H117.154V206.66L117.014 208.76L117.214 210.88V217.88H115.794ZM121.114 212.84C121.861 212.84 122.528 212.673 123.114 212.34C123.701 211.993 124.168 211.513 124.514 210.9C124.861 210.273 125.034 209.553 125.034 208.74C125.034 207.927 124.861 207.213 124.514 206.6C124.168 205.987 123.701 205.507 123.114 205.16C122.528 204.813 121.861 204.64 121.114 204.64C120.368 204.64 119.694 204.813 119.094 205.16C118.508 205.507 118.041 205.987 117.694 206.6C117.361 207.213 117.194 207.927 117.194 208.74C117.194 209.553 117.361 210.273 117.694 210.9C118.041 211.513 118.508 211.993 119.094 212.34C119.694 212.673 120.368 212.84 121.114 212.84ZM129.349 214V203.5H130.709V206.36L130.569 205.86C130.862 205.06 131.356 204.453 132.049 204.04C132.742 203.613 133.602 203.4 134.629 203.4V204.78C134.576 204.78 134.522 204.78 134.469 204.78C134.416 204.767 134.362 204.76 134.309 204.76C133.202 204.76 132.336 205.1 131.709 205.78C131.082 206.447 130.769 207.4 130.769 208.64V214H129.349ZM141.403 214.1C140.389 214.1 139.476 213.873 138.663 213.42C137.863 212.953 137.229 212.32 136.763 211.52C136.296 210.707 136.063 209.78 136.063 208.74C136.063 207.687 136.296 206.76 136.763 205.96C137.229 205.16 137.863 204.533 138.663 204.08C139.463 203.627 140.376 203.4 141.403 203.4C142.443 203.4 143.363 203.627 144.163 204.08C144.976 204.533 145.609 205.16 146.063 205.96C146.529 206.76 146.763 207.687 146.763 208.74C146.763 209.78 146.529 210.707 146.063 211.52C145.609 212.32 144.976 212.953 144.163 213.42C143.349 213.873 142.429 214.1 141.403 214.1ZM141.403 212.84C142.163 212.84 142.836 212.673 143.423 212.34C144.009 211.993 144.469 211.513 144.803 210.9C145.149 210.273 145.323 209.553 145.323 208.74C145.323 207.913 145.149 207.193 144.803 206.58C144.469 205.967 144.009 205.493 143.423 205.16C142.836 204.813 142.169 204.64 141.423 204.64C140.676 204.64 140.009 204.813 139.423 205.16C138.836 205.493 138.369 205.967 138.023 206.58C137.676 207.193 137.503 207.913 137.503 208.74C137.503 209.553 137.676 210.273 138.023 210.9C138.369 211.513 138.836 211.993 139.423 212.34C140.009 212.673 140.669 212.84 141.403 212.84ZM162.782 203.4C163.635 203.4 164.375 203.567 165.002 203.9C165.642 204.22 166.135 204.713 166.482 205.38C166.842 206.047 167.022 206.887 167.022 207.9V214H165.602V208.04C165.602 206.933 165.335 206.1 164.802 205.54C164.282 204.967 163.542 204.68 162.582 204.68C161.862 204.68 161.235 204.833 160.702 205.14C160.182 205.433 159.775 205.867 159.482 206.44C159.202 207 159.062 207.68 159.062 208.48V214H157.642V208.04C157.642 206.933 157.375 206.1 156.842 205.54C156.308 204.967 155.562 204.68 154.602 204.68C153.895 204.68 153.275 204.833 152.742 205.14C152.208 205.433 151.795 205.867 151.502 206.44C151.222 207 151.082 207.68 151.082 208.48V214H149.662V203.5H151.022V206.34L150.802 205.84C151.122 205.08 151.635 204.487 152.342 204.06C153.062 203.62 153.908 203.4 154.882 203.4C155.908 203.4 156.782 203.66 157.502 204.18C158.222 204.687 158.688 205.453 158.902 206.48L158.342 206.26C158.648 205.407 159.188 204.72 159.962 204.2C160.748 203.667 161.688 203.4 162.782 203.4ZM175.153 214.1C174.139 214.1 173.226 213.873 172.413 213.42C171.613 212.953 170.979 212.32 170.513 211.52C170.046 210.707 169.813 209.78 169.813 208.74C169.813 207.687 170.046 206.76 170.513 205.96C170.979 205.16 171.613 204.533 172.413 204.08C173.213 203.627 174.126 203.4 175.153 203.4C176.193 203.4 177.113 203.627 177.913 204.08C178.726 204.533 179.359 205.16 179.813 205.96C180.279 206.76 180.513 207.687 180.513 208.74C180.513 209.78 180.279 210.707 179.813 211.52C179.359 212.32 178.726 212.953 177.913 213.42C177.099 213.873 176.179 214.1 175.153 214.1ZM175.153 212.84C175.913 212.84 176.586 212.673 177.173 212.34C177.759 211.993 178.219 211.513 178.553 210.9C178.899 210.273 179.073 209.553 179.073 208.74C179.073 207.913 178.899 207.193 178.553 206.58C178.219 205.967 177.759 205.493 177.173 205.16C176.586 204.813 175.919 204.64 175.173 204.64C174.426 204.64 173.759 204.813 173.173 205.16C172.586 205.493 172.119 205.967 171.773 206.58C171.426 207.193 171.253 207.913 171.253 208.74C171.253 209.553 171.426 210.273 171.773 210.9C172.119 211.513 172.586 211.993 173.173 212.34C173.759 212.673 174.419 212.84 175.153 212.84ZM188.886 214V202.18C188.886 201.247 189.159 200.493 189.706 199.92C190.253 199.347 191.039 199.06 192.066 199.06C192.466 199.06 192.853 199.113 193.226 199.22C193.599 199.327 193.913 199.493 194.166 199.72L193.686 200.78C193.486 200.607 193.253 200.48 192.986 200.4C192.719 200.307 192.433 200.26 192.126 200.26C191.526 200.26 191.066 200.427 190.746 200.76C190.426 201.093 190.266 201.587 190.266 202.24V203.84L190.306 204.5V214H188.886ZM187.006 204.68V203.5H193.506V204.68H187.006ZM199.528 214.1C198.514 214.1 197.601 213.873 196.788 213.42C195.988 212.953 195.354 212.32 194.888 211.52C194.421 210.707 194.188 209.78 194.188 208.74C194.188 207.687 194.421 206.76 194.888 205.96C195.354 205.16 195.988 204.533 196.788 204.08C197.588 203.627 198.501 203.4 199.528 203.4C200.568 203.4 201.488 203.627 202.288 204.08C203.101 204.533 203.734 205.16 204.188 205.96C204.654 206.76 204.888 207.687 204.888 208.74C204.888 209.78 204.654 210.707 204.188 211.52C203.734 212.32 203.101 212.953 202.288 213.42C201.474 213.873 200.554 214.1 199.528 214.1ZM199.528 212.84C200.288 212.84 200.961 212.673 201.548 212.34C202.134 211.993 202.594 211.513 202.928 210.9C203.274 210.273 203.448 209.553 203.448 208.74C203.448 207.913 203.274 207.193 202.928 206.58C202.594 205.967 202.134 205.493 201.548 205.16C200.961 204.813 200.294 204.64 199.548 204.64C198.801 204.64 198.134 204.813 197.548 205.16C196.961 205.493 196.494 205.967 196.148 206.58C195.801 207.193 195.628 207.913 195.628 208.74C195.628 209.553 195.801 210.273 196.148 210.9C196.494 211.513 196.961 211.993 197.548 212.34C198.134 212.673 198.794 212.84 199.528 212.84ZM207.787 214V203.5H209.147V206.36L209.007 205.86C209.3 205.06 209.793 204.453 210.487 204.04C211.18 203.613 212.04 203.4 213.067 203.4V204.78C213.013 204.78 212.96 204.78 212.907 204.78C212.853 204.767 212.8 204.76 212.747 204.76C211.64 204.76 210.773 205.1 210.147 205.78C209.52 206.447 209.207 207.4 209.207 208.64V214H207.787ZM227.628 214V211.68L227.568 211.3V207.42C227.568 206.527 227.315 205.84 226.808 205.36C226.315 204.88 225.575 204.64 224.588 204.64C223.908 204.64 223.262 204.753 222.648 204.98C222.035 205.207 221.515 205.507 221.088 205.88L220.448 204.82C220.982 204.367 221.622 204.02 222.368 203.78C223.115 203.527 223.902 203.4 224.728 203.4C226.088 203.4 227.135 203.74 227.868 204.42C228.615 205.087 228.988 206.107 228.988 207.48V214H227.628ZM224.008 214.1C223.222 214.1 222.535 213.973 221.948 213.72C221.375 213.453 220.935 213.093 220.628 212.64C220.322 212.173 220.168 211.64 220.168 211.04C220.168 210.493 220.295 210 220.548 209.56C220.815 209.107 221.242 208.747 221.828 208.48C222.428 208.2 223.228 208.06 224.228 208.06H227.848V209.12H224.268C223.255 209.12 222.548 209.3 222.148 209.66C221.762 210.02 221.568 210.467 221.568 211C221.568 211.6 221.802 212.08 222.268 212.44C222.735 212.8 223.388 212.98 224.228 212.98C225.028 212.98 225.715 212.8 226.288 212.44C226.875 212.067 227.302 211.533 227.568 210.84L227.888 211.82C227.622 212.513 227.155 213.067 226.488 213.48C225.835 213.893 225.008 214.1 224.008 214.1ZM232.845 214V199.16H234.265V214H232.845ZM238.216 214V199.16H239.636V214H238.216ZM254.182 203.4C255.035 203.4 255.782 203.567 256.422 203.9C257.075 204.22 257.582 204.713 257.942 205.38C258.315 206.047 258.502 206.887 258.502 207.9V214H257.082V208.04C257.082 206.933 256.802 206.1 256.242 205.54C255.695 204.967 254.922 204.68 253.922 204.68C253.175 204.68 252.522 204.833 251.962 205.14C251.415 205.433 250.988 205.867 250.682 206.44C250.388 207 250.242 207.68 250.242 208.48V214H248.822V199.16H250.242V206.38L249.962 205.84C250.295 205.08 250.828 204.487 251.562 204.06C252.295 203.62 253.168 203.4 254.182 203.4ZM266.797 214.1C265.704 214.1 264.744 213.873 263.917 213.42C263.091 212.953 262.444 212.32 261.977 211.52C261.511 210.707 261.277 209.78 261.277 208.74C261.277 207.7 261.497 206.78 261.937 205.98C262.391 205.18 263.004 204.553 263.777 204.1C264.564 203.633 265.444 203.4 266.417 203.4C267.404 203.4 268.277 203.627 269.037 204.08C269.811 204.52 270.417 205.147 270.857 205.96C271.297 206.76 271.517 207.687 271.517 208.74C271.517 208.807 271.511 208.88 271.497 208.96C271.497 209.027 271.497 209.1 271.497 209.18H262.357V208.12H270.737L270.177 208.54C270.177 207.78 270.011 207.107 269.677 206.52C269.357 205.92 268.917 205.453 268.357 205.12C267.797 204.787 267.151 204.62 266.417 204.62C265.697 204.62 265.051 204.787 264.477 205.12C263.904 205.453 263.457 205.92 263.137 206.52C262.817 207.12 262.657 207.807 262.657 208.58V208.8C262.657 209.6 262.831 210.307 263.177 210.92C263.537 211.52 264.031 211.993 264.657 212.34C265.297 212.673 266.024 212.84 266.837 212.84C267.477 212.84 268.071 212.727 268.617 212.5C269.177 212.273 269.657 211.927 270.057 211.46L270.857 212.38C270.391 212.94 269.804 213.367 269.097 213.66C268.404 213.953 267.637 214.1 266.797 214.1ZM280.695 214V211.68L280.635 211.3V207.42C280.635 206.527 280.381 205.84 279.875 205.36C279.381 204.88 278.641 204.64 277.655 204.64C276.975 204.64 276.328 204.753 275.715 204.98C275.101 205.207 274.581 205.507 274.155 205.88L273.515 204.82C274.048 204.367 274.688 204.02 275.435 203.78C276.181 203.527 276.968 203.4 277.795 203.4C279.155 203.4 280.201 203.74 280.935 204.42C281.681 205.087 282.055 206.107 282.055 207.48V214H280.695ZM277.075 214.1C276.288 214.1 275.601 213.973 275.015 213.72C274.441 213.453 274.001 213.093 273.695 212.64C273.388 212.173 273.235 211.64 273.235 211.04C273.235 210.493 273.361 210 273.615 209.56C273.881 209.107 274.308 208.747 274.895 208.48C275.495 208.2 276.295 208.06 277.295 208.06H280.915V209.12H277.335C276.321 209.12 275.615 209.3 275.215 209.66C274.828 210.02 274.635 210.467 274.635 211C274.635 211.6 274.868 212.08 275.335 212.44C275.801 212.8 276.455 212.98 277.295 212.98C278.095 212.98 278.781 212.8 279.355 212.44C279.941 212.067 280.368 211.533 280.635 210.84L280.955 211.82C280.688 212.513 280.221 213.067 279.555 213.48C278.901 213.893 278.075 214.1 277.075 214.1ZM290.092 214.1C289.092 214.1 288.192 213.873 287.392 213.42C286.605 212.967 285.985 212.34 285.532 211.54C285.078 210.727 284.852 209.793 284.852 208.74C284.852 207.673 285.078 206.74 285.532 205.94C285.985 205.14 286.605 204.52 287.392 204.08C288.192 203.627 289.092 203.4 290.092 203.4C291.012 203.4 291.832 203.607 292.552 204.02C293.285 204.433 293.865 205.04 294.292 205.84C294.732 206.627 294.952 207.593 294.952 208.74C294.952 209.873 294.738 210.84 294.312 211.64C293.885 212.44 293.305 213.053 292.572 213.48C291.852 213.893 291.025 214.1 290.092 214.1ZM290.192 212.84C290.938 212.84 291.605 212.673 292.192 212.34C292.792 211.993 293.258 211.513 293.592 210.9C293.938 210.273 294.112 209.553 294.112 208.74C294.112 207.913 293.938 207.193 293.592 206.58C293.258 205.967 292.792 205.493 292.192 205.16C291.605 204.813 290.938 204.64 290.192 204.64C289.458 204.64 288.798 204.813 288.212 205.16C287.625 205.493 287.158 205.967 286.812 206.58C286.465 207.193 286.292 207.913 286.292 208.74C286.292 209.553 286.465 210.273 286.812 210.9C287.158 211.513 287.625 211.993 288.212 212.34C288.798 212.673 289.458 212.84 290.192 212.84ZM294.152 214V210.84L294.292 208.72L294.092 206.6V199.16H295.512V214H294.152ZM304.886 214.1C303.98 214.1 303.16 213.893 302.426 213.48C301.693 213.053 301.106 212.447 300.666 211.66C300.24 210.86 300.026 209.887 300.026 208.74C300.026 207.593 300.24 206.627 300.666 205.84C301.093 205.04 301.673 204.433 302.406 204.02C303.14 203.607 303.966 203.4 304.886 203.4C305.886 203.4 306.78 203.627 307.566 204.08C308.366 204.52 308.993 205.147 309.446 205.96C309.9 206.76 310.126 207.687 310.126 208.74C310.126 209.807 309.9 210.74 309.446 211.54C308.993 212.34 308.366 212.967 307.566 213.42C306.78 213.873 305.886 214.1 304.886 214.1ZM299.466 217.88V203.5H300.826V206.66L300.686 208.76L300.886 210.88V217.88H299.466ZM304.786 212.84C305.533 212.84 306.2 212.673 306.786 212.34C307.373 211.993 307.84 211.513 308.186 210.9C308.533 210.273 308.706 209.553 308.706 208.74C308.706 207.927 308.533 207.213 308.186 206.6C307.84 205.987 307.373 205.507 306.786 205.16C306.2 204.813 305.533 204.64 304.786 204.64C304.04 204.64 303.366 204.813 302.766 205.16C302.18 205.507 301.713 205.987 301.366 206.6C301.033 207.213 300.866 207.927 300.866 208.74C300.866 209.553 301.033 210.273 301.366 210.9C301.713 211.513 302.18 211.993 302.766 212.34C303.366 212.673 304.04 212.84 304.786 212.84ZM318.381 203.4C319.234 203.4 319.981 203.567 320.621 203.9C321.274 204.22 321.781 204.713 322.141 205.38C322.514 206.047 322.701 206.887 322.701 207.9V214H321.281V208.04C321.281 206.933 321.001 206.1 320.441 205.54C319.894 204.967 319.121 204.68 318.121 204.68C317.374 204.68 316.721 204.833 316.161 205.14C315.614 205.433 315.188 205.867 314.881 206.44C314.588 207 314.441 207.68 314.441 208.48V214H313.021V199.16H314.441V206.38L314.161 205.84C314.494 205.08 315.028 204.487 315.761 204.06C316.494 203.62 317.368 203.4 318.381 203.4ZM330.817 214.1C329.803 214.1 328.89 213.873 328.077 213.42C327.277 212.953 326.643 212.32 326.177 211.52C325.71 210.707 325.477 209.78 325.477 208.74C325.477 207.687 325.71 206.76 326.177 205.96C326.643 205.16 327.277 204.533 328.077 204.08C328.877 203.627 329.79 203.4 330.817 203.4C331.857 203.4 332.777 203.627 333.577 204.08C334.39 204.533 335.023 205.16 335.477 205.96C335.943 206.76 336.177 207.687 336.177 208.74C336.177 209.78 335.943 210.707 335.477 211.52C335.023 212.32 334.39 212.953 333.577 213.42C332.763 213.873 331.843 214.1 330.817 214.1ZM330.817 212.84C331.577 212.84 332.25 212.673 332.837 212.34C333.423 211.993 333.883 211.513 334.217 210.9C334.563 210.273 334.737 209.553 334.737 208.74C334.737 207.913 334.563 207.193 334.217 206.58C333.883 205.967 333.423 205.493 332.837 205.16C332.25 204.813 331.583 204.64 330.837 204.64C330.09 204.64 329.423 204.813 328.837 205.16C328.25 205.493 327.783 205.967 327.437 206.58C327.09 207.193 326.917 207.913 326.917 208.74C326.917 209.553 327.09 210.273 327.437 210.9C327.783 211.513 328.25 211.993 328.837 212.34C329.423 212.673 330.083 212.84 330.817 212.84ZM344.436 203.4C345.289 203.4 346.036 203.567 346.676 203.9C347.329 204.22 347.836 204.713 348.196 205.38C348.569 206.047 348.756 206.887 348.756 207.9V214H347.336V208.04C347.336 206.933 347.056 206.1 346.496 205.54C345.949 204.967 345.176 204.68 344.176 204.68C343.429 204.68 342.776 204.833 342.216 205.14C341.669 205.433 341.242 205.867 340.936 206.44C340.642 207 340.496 207.68 340.496 208.48V214H339.076V203.5H340.436V206.38L340.216 205.84C340.549 205.08 341.082 204.487 341.816 204.06C342.549 203.62 343.422 203.4 344.436 203.4ZM357.051 214.1C355.958 214.1 354.998 213.873 354.171 213.42C353.345 212.953 352.698 212.32 352.231 211.52C351.765 210.707 351.531 209.78 351.531 208.74C351.531 207.7 351.751 206.78 352.191 205.98C352.645 205.18 353.258 204.553 354.031 204.1C354.818 203.633 355.698 203.4 356.671 203.4C357.658 203.4 358.531 203.627 359.291 204.08C360.065 204.52 360.671 205.147 361.111 205.96C361.551 206.76 361.771 207.687 361.771 208.74C361.771 208.807 361.765 208.88 361.751 208.96C361.751 209.027 361.751 209.1 361.751 209.18H352.611V208.12H360.991L360.431 208.54C360.431 207.78 360.265 207.107 359.931 206.52C359.611 205.92 359.171 205.453 358.611 205.12C358.051 204.787 357.405 204.62 356.671 204.62C355.951 204.62 355.305 204.787 354.731 205.12C354.158 205.453 353.711 205.92 353.391 206.52C353.071 207.12 352.911 207.807 352.911 208.58V208.8C352.911 209.6 353.085 210.307 353.431 210.92C353.791 211.52 354.285 211.993 354.911 212.34C355.551 212.673 356.278 212.84 357.091 212.84C357.731 212.84 358.325 212.727 358.871 212.5C359.431 212.273 359.911 211.927 360.311 211.46L361.111 212.38C360.645 212.94 360.058 213.367 359.351 213.66C358.658 213.953 357.891 214.1 357.051 214.1ZM367.482 214.1C366.615 214.1 365.795 213.98 365.022 213.74C364.248 213.487 363.642 213.173 363.202 212.8L363.842 211.68C364.268 212 364.815 212.28 365.482 212.52C366.148 212.747 366.848 212.86 367.582 212.86C368.582 212.86 369.302 212.707 369.742 212.4C370.182 212.08 370.402 211.66 370.402 211.14C370.402 210.753 370.275 210.453 370.022 210.24C369.782 210.013 369.462 209.847 369.062 209.74C368.662 209.62 368.215 209.52 367.722 209.44C367.228 209.36 366.735 209.267 366.242 209.16C365.762 209.053 365.322 208.9 364.922 208.7C364.522 208.487 364.195 208.2 363.942 207.84C363.702 207.48 363.582 207 363.582 206.4C363.582 205.827 363.742 205.313 364.062 204.86C364.382 204.407 364.848 204.053 365.462 203.8C366.088 203.533 366.848 203.4 367.742 203.4C368.422 203.4 369.102 203.493 369.782 203.68C370.462 203.853 371.022 204.087 371.462 204.38L370.842 205.52C370.375 205.2 369.875 204.973 369.342 204.84C368.808 204.693 368.275 204.62 367.742 204.62C366.795 204.62 366.095 204.787 365.642 205.12C365.202 205.44 364.982 205.853 364.982 206.36C364.982 206.76 365.102 207.073 365.342 207.3C365.595 207.527 365.922 207.707 366.322 207.84C366.735 207.96 367.182 208.06 367.662 208.14C368.155 208.22 368.642 208.32 369.122 208.44C369.615 208.547 370.062 208.7 370.462 208.9C370.875 209.087 371.202 209.36 371.442 209.72C371.695 210.067 371.822 210.527 371.822 211.1C371.822 211.713 371.648 212.247 371.302 212.7C370.968 213.14 370.475 213.487 369.822 213.74C369.182 213.98 368.402 214.1 367.482 214.1ZM383.362 214.12C382.455 214.12 381.648 213.973 380.942 213.68C380.235 213.373 379.675 212.953 379.262 212.42C378.862 211.887 378.662 211.267 378.662 210.56C378.662 209.96 378.795 209.413 379.062 208.92C379.328 208.413 379.755 207.92 380.342 207.44C380.942 206.947 381.735 206.433 382.722 205.9C383.562 205.433 384.215 205.033 384.682 204.7C385.162 204.353 385.502 204.027 385.702 203.72C385.902 203.4 386.002 203.06 386.002 202.7C386.002 202.18 385.822 201.76 385.462 201.44C385.115 201.12 384.615 200.96 383.962 200.96C383.255 200.96 382.708 201.14 382.322 201.5C381.935 201.847 381.742 202.3 381.742 202.86C381.742 203.14 381.782 203.407 381.862 203.66C381.955 203.913 382.122 204.193 382.362 204.5C382.615 204.807 382.962 205.193 383.402 205.66L390.802 213.28L389.982 214.22L382.262 206.28C381.795 205.787 381.422 205.36 381.142 205C380.875 204.627 380.688 204.273 380.582 203.94C380.475 203.607 380.422 203.253 380.422 202.88C380.422 202.28 380.562 201.76 380.842 201.32C381.135 200.867 381.548 200.52 382.082 200.28C382.615 200.027 383.242 199.9 383.962 199.9C384.615 199.9 385.182 200.013 385.662 200.24C386.155 200.453 386.535 200.767 386.802 201.18C387.082 201.593 387.222 202.093 387.222 202.68C387.222 203.187 387.095 203.66 386.842 204.1C386.602 204.54 386.202 204.973 385.642 205.4C385.082 205.813 384.322 206.28 383.362 206.8C382.522 207.267 381.855 207.693 381.362 208.08C380.882 208.467 380.542 208.847 380.342 209.22C380.142 209.58 380.042 209.98 380.042 210.42C380.042 210.927 380.182 211.373 380.462 211.76C380.755 212.133 381.155 212.427 381.662 212.64C382.182 212.84 382.775 212.94 383.442 212.94C384.375 212.94 385.208 212.747 385.942 212.36C386.675 211.973 387.288 211.387 387.782 210.6C388.288 209.813 388.655 208.827 388.882 207.64L390.022 208C389.768 209.333 389.335 210.453 388.722 211.36C388.108 212.267 387.348 212.953 386.442 213.42C385.535 213.887 384.508 214.12 383.362 214.12ZM402.735 214.1C401.642 214.1 400.682 213.873 399.855 213.42C399.028 212.953 398.382 212.32 397.915 211.52C397.448 210.707 397.215 209.78 397.215 208.74C397.215 207.7 397.435 206.78 397.875 205.98C398.328 205.18 398.942 204.553 399.715 204.1C400.502 203.633 401.382 203.4 402.355 203.4C403.342 203.4 404.215 203.627 404.975 204.08C405.748 204.52 406.355 205.147 406.795 205.96C407.235 206.76 407.455 207.687 407.455 208.74C407.455 208.807 407.448 208.88 407.435 208.96C407.435 209.027 407.435 209.1 407.435 209.18H398.295V208.12H406.675L406.115 208.54C406.115 207.78 405.948 207.107 405.615 206.52C405.295 205.92 404.855 205.453 404.295 205.12C403.735 204.787 403.088 204.62 402.355 204.62C401.635 204.62 400.988 204.787 400.415 205.12C399.842 205.453 399.395 205.92 399.075 206.52C398.755 207.12 398.595 207.807 398.595 208.58V208.8C398.595 209.6 398.768 210.307 399.115 210.92C399.475 211.52 399.968 211.993 400.595 212.34C401.235 212.673 401.962 212.84 402.775 212.84C403.415 212.84 404.008 212.727 404.555 212.5C405.115 212.273 405.595 211.927 405.995 211.46L406.795 212.38C406.328 212.94 405.742 213.367 405.035 213.66C404.342 213.953 403.575 214.1 402.735 214.1ZM416.632 214V211.68L416.572 211.3V207.42C416.572 206.527 416.319 205.84 415.812 205.36C415.319 204.88 414.579 204.64 413.592 204.64C412.912 204.64 412.266 204.753 411.652 204.98C411.039 205.207 410.519 205.507 410.092 205.88L409.452 204.82C409.986 204.367 410.626 204.02 411.372 203.78C412.119 203.527 412.906 203.4 413.732 203.4C415.092 203.4 416.139 203.74 416.872 204.42C417.619 205.087 417.992 206.107 417.992 207.48V214H416.632ZM413.012 214.1C412.226 214.1 411.539 213.973 410.952 213.72C410.379 213.453 409.939 213.093 409.632 212.64C409.326 212.173 409.172 211.64 409.172 211.04C409.172 210.493 409.299 210 409.552 209.56C409.819 209.107 410.246 208.747 410.832 208.48C411.432 208.2 412.232 208.06 413.232 208.06H416.852V209.12H413.272C412.259 209.12 411.552 209.3 411.152 209.66C410.766 210.02 410.572 210.467 410.572 211C410.572 211.6 410.806 212.08 411.272 212.44C411.739 212.8 412.392 212.98 413.232 212.98C414.032 212.98 414.719 212.8 415.292 212.44C415.879 212.067 416.306 211.533 416.572 210.84L416.892 211.82C416.626 212.513 416.159 213.067 415.492 213.48C414.839 213.893 414.012 214.1 413.012 214.1ZM421.849 214V203.5H423.209V206.36L423.069 205.86C423.362 205.06 423.856 204.453 424.549 204.04C425.242 203.613 426.102 203.4 427.129 203.4V204.78C427.076 204.78 427.022 204.78 426.969 204.78C426.916 204.767 426.862 204.76 426.809 204.76C425.702 204.76 424.836 205.1 424.209 205.78C423.582 206.447 423.269 207.4 423.269 208.64V214H421.849ZM435.14 214.1C434.234 214.1 433.414 213.893 432.68 213.48C431.947 213.053 431.36 212.447 430.92 211.66C430.494 210.86 430.28 209.887 430.28 208.74C430.28 207.593 430.494 206.627 430.92 205.84C431.347 205.04 431.927 204.433 432.66 204.02C433.394 203.607 434.22 203.4 435.14 203.4C436.14 203.4 437.034 203.627 437.82 204.08C438.62 204.52 439.247 205.147 439.7 205.96C440.154 206.76 440.38 207.687 440.38 208.74C440.38 209.807 440.154 210.74 439.7 211.54C439.247 212.34 438.62 212.967 437.82 213.42C437.034 213.873 436.14 214.1 435.14 214.1ZM429.72 217.88V203.5H431.08V206.66L430.94 208.76L431.14 210.88V217.88H429.72ZM435.04 212.84C435.787 212.84 436.454 212.673 437.04 212.34C437.627 211.993 438.094 211.513 438.44 210.9C438.787 210.273 438.96 209.553 438.96 208.74C438.96 207.927 438.787 207.213 438.44 206.6C438.094 205.987 437.627 205.507 437.04 205.16C436.454 204.813 435.787 204.64 435.04 204.64C434.294 204.64 433.62 204.813 433.02 205.16C432.434 205.507 431.967 205.987 431.62 206.6C431.287 207.213 431.12 207.927 431.12 208.74C431.12 209.553 431.287 210.273 431.62 210.9C431.967 211.513 432.434 211.993 433.02 212.34C433.62 212.673 434.294 212.84 435.04 212.84ZM448.635 203.4C449.488 203.4 450.235 203.567 450.875 203.9C451.528 204.22 452.035 204.713 452.395 205.38C452.768 206.047 452.955 206.887 452.955 207.9V214H451.535V208.04C451.535 206.933 451.255 206.1 450.695 205.54C450.148 204.967 449.375 204.68 448.375 204.68C447.628 204.68 446.975 204.833 446.415 205.14C445.868 205.433 445.442 205.867 445.135 206.44C444.842 207 444.695 207.68 444.695 208.48V214H443.275V199.16H444.695V206.38L444.415 205.84C444.748 205.08 445.282 204.487 446.015 204.06C446.748 203.62 447.622 203.4 448.635 203.4ZM461.071 214.1C460.057 214.1 459.144 213.873 458.331 213.42C457.531 212.953 456.897 212.32 456.431 211.52C455.964 210.707 455.731 209.78 455.731 208.74C455.731 207.687 455.964 206.76 456.431 205.96C456.897 205.16 457.531 204.533 458.331 204.08C459.131 203.627 460.044 203.4 461.071 203.4C462.111 203.4 463.031 203.627 463.831 204.08C464.644 204.533 465.277 205.16 465.731 205.96C466.197 206.76 466.431 207.687 466.431 208.74C466.431 209.78 466.197 210.707 465.731 211.52C465.277 212.32 464.644 212.953 463.831 213.42C463.017 213.873 462.097 214.1 461.071 214.1ZM461.071 212.84C461.831 212.84 462.504 212.673 463.091 212.34C463.677 211.993 464.137 211.513 464.471 210.9C464.817 210.273 464.991 209.553 464.991 208.74C464.991 207.913 464.817 207.193 464.471 206.58C464.137 205.967 463.677 205.493 463.091 205.16C462.504 204.813 461.837 204.64 461.091 204.64C460.344 204.64 459.677 204.813 459.091 205.16C458.504 205.493 458.037 205.967 457.691 206.58C457.344 207.193 457.171 207.913 457.171 208.74C457.171 209.553 457.344 210.273 457.691 210.9C458.037 211.513 458.504 211.993 459.091 212.34C459.677 212.673 460.337 212.84 461.071 212.84ZM474.69 203.4C475.543 203.4 476.29 203.567 476.93 203.9C477.583 204.22 478.09 204.713 478.45 205.38C478.823 206.047 479.01 206.887 479.01 207.9V214H477.59V208.04C477.59 206.933 477.31 206.1 476.75 205.54C476.203 204.967 475.43 204.68 474.43 204.68C473.683 204.68 473.03 204.833 472.47 205.14C471.923 205.433 471.496 205.867 471.19 206.44C470.896 207 470.75 207.68 470.75 208.48V214H469.33V203.5H470.69V206.38L470.47 205.84C470.803 205.08 471.336 204.487 472.07 204.06C472.803 203.62 473.676 203.4 474.69 203.4ZM487.305 214.1C486.212 214.1 485.252 213.873 484.425 213.42C483.599 212.953 482.952 212.32 482.485 211.52C482.019 210.707 481.785 209.78 481.785 208.74C481.785 207.7 482.005 206.78 482.445 205.98C482.899 205.18 483.512 204.553 484.285 204.1C485.072 203.633 485.952 203.4 486.925 203.4C487.912 203.4 488.785 203.627 489.545 204.08C490.319 204.52 490.925 205.147 491.365 205.96C491.805 206.76 492.025 207.687 492.025 208.74C492.025 208.807 492.019 208.88 492.005 208.96C492.005 209.027 492.005 209.1 492.005 209.18H482.865V208.12H491.245L490.685 208.54C490.685 207.78 490.519 207.107 490.185 206.52C489.865 205.92 489.425 205.453 488.865 205.12C488.305 204.787 487.659 204.62 486.925 204.62C486.205 204.62 485.559 204.787 484.985 205.12C484.412 205.453 483.965 205.92 483.645 206.52C483.325 207.12 483.165 207.807 483.165 208.58V208.8C483.165 209.6 483.339 210.307 483.685 210.92C484.045 211.52 484.539 211.993 485.165 212.34C485.805 212.673 486.532 212.84 487.345 212.84C487.985 212.84 488.579 212.727 489.125 212.5C489.685 212.273 490.165 211.927 490.565 211.46L491.365 212.38C490.899 212.94 490.312 213.367 489.605 213.66C488.912 213.953 488.145 214.1 487.305 214.1ZM497.736 214.1C496.869 214.1 496.049 213.98 495.276 213.74C494.502 213.487 493.896 213.173 493.456 212.8L494.096 211.68C494.522 212 495.069 212.28 495.736 212.52C496.402 212.747 497.102 212.86 497.836 212.86C498.836 212.86 499.556 212.707 499.996 212.4C500.436 212.08 500.656 211.66 500.656 211.14C500.656 210.753 500.529 210.453 500.276 210.24C500.036 210.013 499.716 209.847 499.316 209.74C498.916 209.62 498.469 209.52 497.976 209.44C497.482 209.36 496.989 209.267 496.496 209.16C496.016 209.053 495.576 208.9 495.176 208.7C494.776 208.487 494.449 208.2 494.196 207.84C493.956 207.48 493.836 207 493.836 206.4C493.836 205.827 493.996 205.313 494.316 204.86C494.636 204.407 495.102 204.053 495.716 203.8C496.342 203.533 497.102 203.4 497.996 203.4C498.676 203.4 499.356 203.493 500.036 203.68C500.716 203.853 501.276 204.087 501.716 204.38L501.096 205.52C500.629 205.2 500.129 204.973 499.596 204.84C499.062 204.693 498.529 204.62 497.996 204.62C497.049 204.62 496.349 204.787 495.896 205.12C495.456 205.44 495.236 205.853 495.236 206.36C495.236 206.76 495.356 207.073 495.596 207.3C495.849 207.527 496.176 207.707 496.576 207.84C496.989 207.96 497.436 208.06 497.916 208.14C498.409 208.22 498.896 208.32 499.376 208.44C499.869 208.547 500.316 208.7 500.716 208.9C501.129 209.087 501.456 209.36 501.696 209.72C501.949 210.067 502.076 210.527 502.076 211.1C502.076 211.713 501.902 212.247 501.556 212.7C501.222 213.14 500.729 213.487 500.076 213.74C499.436 213.98 498.656 214.1 497.736 214.1ZM504.821 214.1C504.528 214.1 504.275 213.993 504.061 213.78C503.861 213.567 503.761 213.307 503.761 213C503.761 212.68 503.861 212.42 504.061 212.22C504.275 212.02 504.528 211.92 504.821 211.92C505.115 211.92 505.361 212.02 505.561 212.22C505.775 212.42 505.881 212.68 505.881 213C505.881 213.307 505.775 213.567 505.561 213.78C505.361 213.993 505.115 214.1 504.821 214.1Z" fill="#303030"/>
<rect x="178" y="270" width="187" height="62" rx="10" fill="#FF624C"/>
<path d="M224.26 308.24C223.14 308.24 222.067 308.093 221.04 307.8C220.013 307.493 219.187 307.1 218.56 306.62L219.66 304.18C220.26 304.607 220.967 304.96 221.78 305.24C222.607 305.507 223.44 305.64 224.28 305.64C224.92 305.64 225.433 305.58 225.82 305.46C226.22 305.327 226.513 305.147 226.7 304.92C226.887 304.693 226.98 304.433 226.98 304.14C226.98 303.767 226.833 303.473 226.54 303.26C226.247 303.033 225.86 302.853 225.38 302.72C224.9 302.573 224.367 302.44 223.78 302.32C223.207 302.187 222.627 302.027 222.04 301.84C221.467 301.653 220.94 301.413 220.46 301.12C219.98 300.827 219.587 300.44 219.28 299.96C218.987 299.48 218.84 298.867 218.84 298.12C218.84 297.32 219.053 296.593 219.48 295.94C219.92 295.273 220.573 294.747 221.44 294.36C222.32 293.96 223.42 293.76 224.74 293.76C225.62 293.76 226.487 293.867 227.34 294.08C228.193 294.28 228.947 294.587 229.6 295L228.6 297.46C227.947 297.087 227.293 296.813 226.64 296.64C225.987 296.453 225.347 296.36 224.72 296.36C224.093 296.36 223.58 296.433 223.18 296.58C222.78 296.727 222.493 296.92 222.32 297.16C222.147 297.387 222.06 297.653 222.06 297.96C222.06 298.32 222.207 298.613 222.5 298.84C222.793 299.053 223.18 299.227 223.66 299.36C224.14 299.493 224.667 299.627 225.24 299.76C225.827 299.893 226.407 300.047 226.98 300.22C227.567 300.393 228.1 300.627 228.58 300.92C229.06 301.213 229.447 301.6 229.74 302.08C230.047 302.56 230.2 303.167 230.2 303.9C230.2 304.687 229.98 305.407 229.54 306.06C229.1 306.713 228.44 307.24 227.56 307.64C226.693 308.04 225.593 308.24 224.26 308.24ZM238.734 297.08C239.587 297.08 240.347 297.253 241.014 297.6C241.694 297.933 242.227 298.453 242.614 299.16C243.001 299.853 243.194 300.747 243.194 301.84V308H240.074V302.32C240.074 301.453 239.881 300.813 239.494 300.4C239.121 299.987 238.587 299.78 237.894 299.78C237.401 299.78 236.954 299.887 236.554 300.1C236.167 300.3 235.861 300.613 235.634 301.04C235.421 301.467 235.314 302.013 235.314 302.68V308H232.194V293.16H235.314V300.22L234.614 299.32C235.001 298.6 235.554 298.047 236.274 297.66C236.994 297.273 237.814 297.08 238.734 297.08ZM251.22 308.16C250.073 308.16 249.053 307.92 248.16 307.44C247.28 306.96 246.58 306.307 246.06 305.48C245.553 304.64 245.3 303.687 245.3 302.62C245.3 301.54 245.553 300.587 246.06 299.76C246.58 298.92 247.28 298.267 248.16 297.8C249.053 297.32 250.073 297.08 251.22 297.08C252.353 297.08 253.367 297.32 254.26 297.8C255.153 298.267 255.853 298.913 256.36 299.74C256.867 300.567 257.12 301.527 257.12 302.62C257.12 303.687 256.867 304.64 256.36 305.48C255.853 306.307 255.153 306.96 254.26 307.44C253.367 307.92 252.353 308.16 251.22 308.16ZM251.22 305.6C251.74 305.6 252.207 305.48 252.62 305.24C253.033 305 253.36 304.66 253.6 304.22C253.84 303.767 253.96 303.233 253.96 302.62C253.96 301.993 253.84 301.46 253.6 301.02C253.36 300.58 253.033 300.24 252.62 300C252.207 299.76 251.74 299.64 251.22 299.64C250.7 299.64 250.233 299.76 249.82 300C249.407 300.24 249.073 300.58 248.82 301.02C248.58 301.46 248.46 301.993 248.46 302.62C248.46 303.233 248.58 303.767 248.82 304.22C249.073 304.66 249.407 305 249.82 305.24C250.233 305.48 250.7 305.6 251.22 305.6ZM265.566 308.16C264.659 308.16 263.866 307.96 263.186 307.56C262.506 307.16 261.972 306.553 261.586 305.74C261.212 304.913 261.026 303.873 261.026 302.62C261.026 301.353 261.206 300.313 261.566 299.5C261.926 298.687 262.446 298.08 263.126 297.68C263.806 297.28 264.619 297.08 265.566 297.08C266.579 297.08 267.486 297.313 268.286 297.78C269.099 298.233 269.739 298.873 270.206 299.7C270.686 300.527 270.926 301.5 270.926 302.62C270.926 303.753 270.686 304.733 270.206 305.56C269.739 306.387 269.099 307.027 268.286 307.48C267.486 307.933 266.579 308.16 265.566 308.16ZM259.206 311.88V297.24H262.186V299.44L262.126 302.64L262.326 305.82V311.88H259.206ZM265.026 305.6C265.546 305.6 266.006 305.48 266.406 305.24C266.819 305 267.146 304.66 267.386 304.22C267.639 303.767 267.766 303.233 267.766 302.62C267.766 301.993 267.639 301.46 267.386 301.02C267.146 300.58 266.819 300.24 266.406 300C266.006 299.76 265.546 299.64 265.026 299.64C264.506 299.64 264.039 299.76 263.626 300C263.212 300.24 262.886 300.58 262.646 301.02C262.406 301.46 262.286 301.993 262.286 302.62C262.286 303.233 262.406 303.767 262.646 304.22C262.886 304.66 263.212 305 263.626 305.24C264.039 305.48 264.506 305.6 265.026 305.6ZM278.898 308V294H281.578L289.838 304.08H288.538V294H291.738V308H289.078L280.798 297.92H282.098V308H278.898ZM299.951 308.16C298.804 308.16 297.784 307.92 296.891 307.44C296.011 306.96 295.311 306.307 294.791 305.48C294.284 304.64 294.031 303.687 294.031 302.62C294.031 301.54 294.284 300.587 294.791 299.76C295.311 298.92 296.011 298.267 296.891 297.8C297.784 297.32 298.804 297.08 299.951 297.08C301.084 297.08 302.097 297.32 302.991 297.8C303.884 298.267 304.584 298.913 305.091 299.74C305.597 300.567 305.851 301.527 305.851 302.62C305.851 303.687 305.597 304.64 305.091 305.48C304.584 306.307 303.884 306.96 302.991 307.44C302.097 307.92 301.084 308.16 299.951 308.16ZM299.951 305.6C300.471 305.6 300.937 305.48 301.351 305.24C301.764 305 302.091 304.66 302.331 304.22C302.571 303.767 302.691 303.233 302.691 302.62C302.691 301.993 302.571 301.46 302.331 301.02C302.091 300.58 301.764 300.24 301.351 300C300.937 299.76 300.471 299.64 299.951 299.64C299.431 299.64 298.964 299.76 298.551 300C298.137 300.24 297.804 300.58 297.551 301.02C297.311 301.46 297.191 301.993 297.191 302.62C297.191 303.233 297.311 303.767 297.551 304.22C297.804 304.66 298.137 305 298.551 305.24C298.964 305.48 299.431 305.6 299.951 305.6ZM310.103 308L306.223 297.24H309.163L312.383 306.5H310.983L314.343 297.24H316.983L320.243 306.5H318.843L322.163 297.24H324.923L321.023 308H318.003L315.143 300.06H316.063L313.103 308H310.103Z" fill="white"/>
</svg>
