<svg width="32" height="34" viewBox="0 0 32 34" fill="none" xmlns="http://www.w3.org/2000/svg">
<path d="M9.0213 24.1018H9.02258C9.02365 24.1018 9.02471 24.1016 9.02578 24.1016H23.8984C24.2646 24.1016 24.5865 23.8587 24.6871 23.5066L27.9684 12.0222C28.0391 11.7747 27.9895 11.5085 27.8346 11.303C27.6795 11.0975 27.4371 10.9766 27.1797 10.9766H7.12945L6.54306 8.33768C6.45953 7.96234 6.12671 7.69531 5.74218 7.69531H0.820312C0.367218 7.69531 0 8.06253 0 8.51562C0 8.96872 0.367218 9.33594 0.820312 9.33594H5.08423C5.18805 9.80356 7.89038 21.9643 8.04589 22.6639C7.1741 23.0428 6.5625 23.9121 6.5625 24.9219C6.5625 26.2788 7.6665 27.3828 9.02343 27.3828H23.8984C24.3515 27.3828 24.7187 27.0156 24.7187 26.5625C24.7187 26.1094 24.3515 25.7422 23.8984 25.7422H9.02343C8.57119 25.7422 8.20312 25.3741 8.20312 24.9219C8.20312 24.4703 8.56991 24.1028 9.0213 24.1018ZM26.0921 12.6172L23.2796 22.4609H9.68139L7.49389 12.6172H26.0921Z" fill="#303030"/>
<path d="M8.20312 29.8437C8.20312 31.2007 9.30713 32.3047 10.6641 32.3047C12.021 32.3047 13.125 31.2007 13.125 29.8437C13.125 28.4868 12.021 27.3828 10.6641 27.3828C9.30713 27.3828 8.20312 28.4868 8.20312 29.8437ZM10.6641 29.0234C11.1163 29.0234 11.4844 29.3915 11.4844 29.8437C11.4844 30.296 11.1163 30.6641 10.6641 30.6641C10.2118 30.6641 9.84375 30.296 9.84375 29.8437C9.84375 29.3915 10.2118 29.0234 10.6641 29.0234Z" fill="#303030"/>
<path d="M19.7969 29.8437C19.7969 31.2007 20.9009 32.3047 22.2578 32.3047C23.6147 32.3047 24.7187 31.2007 24.7187 29.8437C24.7187 28.4868 23.6147 27.3828 22.2578 27.3828C20.9009 27.3828 19.7969 28.4868 19.7969 29.8437ZM22.2578 29.0234C22.7101 29.0234 23.0781 29.3915 23.0781 29.8437C23.0781 30.296 22.7101 30.6641 22.2578 30.6641C21.8056 30.6641 21.4375 30.296 21.4375 29.8437C21.4375 29.3915 21.8056 29.0234 22.2578 29.0234Z" fill="#303030"/>
<circle cx="29" cy="3" r="3" fill="#FF624C"/>
</svg>
